<svg width="131" height="27" viewBox="0 0 131 27" fill="none" xmlns="http://www.w3.org/2000/svg">
<path d="M39.38 20.12C38.98 20.12 38.5733 20.1067 38.16 20.08C37.76 20.0667 37.3667 20.04 36.98 20C36.6067 19.9733 36.2533 19.9333 35.92 19.88C35.6 19.8267 35.3267 19.7667 35.1 19.7L35.32 18.24H39.92C40.3733 18.24 40.74 18.1667 41.02 18.02C41.3133 17.86 41.4867 17.6 41.54 17.24L41.62 16.68C41.6333 16.6133 41.64 16.5667 41.64 16.54C41.64 16.5 41.64 16.4667 41.64 16.44C41.64 15.92 41.2933 15.66 40.6 15.66H38.88C38.2933 15.66 37.7733 15.5933 37.32 15.46C36.88 15.3133 36.54 15.0933 36.3 14.8C36.06 14.4933 35.94 14.1 35.94 13.62C35.94 13.4867 35.94 13.3467 35.94 13.2C35.9533 13.04 35.9733 12.88 36 12.72L36.14 11.94C36.2467 11.3933 36.44 10.9133 36.72 10.5C37.0133 10.0867 37.4467 9.76 38.02 9.52C38.6067 9.28 39.38 9.16 40.34 9.16C40.74 9.16 41.1933 9.18 41.7 9.22C42.2067 9.26 42.7 9.31333 43.18 9.38C43.6733 9.43333 44.08 9.50667 44.4 9.6L44.16 11.06H39.88C39.3867 11.06 39.0267 11.1467 38.8 11.32C38.5733 11.48 38.42 11.74 38.34 12.1L38.28 12.52C38.2533 12.64 38.2333 12.74 38.22 12.82C38.22 12.8867 38.22 12.9533 38.22 13.02C38.22 13.2467 38.3 13.4133 38.46 13.52C38.6333 13.6133 38.9333 13.66 39.36 13.66H41.24C42.0533 13.66 42.7067 13.8467 43.2 14.22C43.7067 14.58 43.96 15.0933 43.96 15.76C43.96 15.88 43.9533 16.0067 43.94 16.14C43.94 16.2733 43.9267 16.4067 43.9 16.54L43.76 17.5C43.6133 18.46 43.1533 19.14 42.38 19.54C41.6067 19.9267 40.6067 20.12 39.38 20.12ZM47.6553 7.58C47.5486 7.58 47.462 7.54667 47.3953 7.48C47.3286 7.41333 47.3086 7.32667 47.3353 7.22L47.6153 5.4C47.6686 5.13333 47.8153 5 48.0553 5H49.9353C50.0553 5 50.1353 5.04 50.1753 5.12C50.2286 5.2 50.242 5.29333 50.2153 5.4L49.9353 7.22C49.8953 7.46 49.762 7.58 49.5353 7.58H47.6553ZM45.3753 20L47.0553 9.28H49.5353L47.8553 20H45.3753ZM52.58 24.68L49.82 24.52L50.1 22.8H53.42C53.98 22.8 54.48 22.74 54.92 22.62C55.3733 22.5133 55.7467 22.3067 56.04 22C56.3467 21.7067 56.54 21.3133 56.62 20.82L56.94 18.9C56.62 19.14 56.2533 19.3533 55.84 19.54C55.44 19.7267 55.0267 19.8733 54.6 19.98C54.1867 20.0733 53.7867 20.12 53.4 20.12C52.8 20.12 52.2867 19.96 51.86 19.64C51.4333 19.32 51.1067 18.8867 50.88 18.34C50.6667 17.7933 50.56 17.18 50.56 16.5C50.56 16.1533 50.5867 15.76 50.64 15.32C50.6933 14.8667 50.7467 14.4467 50.8 14.06C50.9333 13.1533 51.16 12.3867 51.48 11.76C51.8 11.1333 52.2 10.6333 52.68 10.26C53.16 9.87333 53.7067 9.59333 54.32 9.42C54.9467 9.24667 55.6333 9.16 56.38 9.16C57.3667 9.16 58.2467 9.22667 59.02 9.36C59.7933 9.48 60.4067 9.60667 60.86 9.74L59.04 21.2C58.92 21.92 58.68 22.52 58.32 23C57.9733 23.4933 57.52 23.8733 56.96 24.14C56.4 24.4067 55.7467 24.58 55 24.66C54.2667 24.74 53.46 24.7467 52.58 24.68ZM54.62 18.12C55.0867 18.12 55.52 18.0467 55.92 17.9C56.32 17.7533 56.74 17.5467 57.18 17.28L58.12 11.3C57.8267 11.26 57.52 11.2333 57.2 11.22C56.8933 11.1933 56.58 11.1733 56.26 11.16C55.7 11.1467 55.2133 11.2467 54.8 11.46C54.3867 11.6733 54.0533 12.02 53.8 12.5C53.5467 12.9667 53.3533 13.58 53.22 14.34C53.1533 14.7533 53.1 15.0867 53.06 15.34C53.0333 15.58 53.02 15.8267 53.02 16.08C53.02 16.7733 53.1667 17.2867 53.46 17.62C53.7667 17.9533 54.1533 18.12 54.62 18.12ZM61.6448 20L63.3248 9.28H65.3648L65.6248 10.4C66.1582 10.0533 66.7382 9.76 67.3648 9.52C68.0048 9.26667 68.7315 9.14 69.5448 9.14C70.2248 9.14 70.7648 9.27333 71.1648 9.54C71.5782 9.79333 71.9048 10.1933 72.1448 10.74C72.7582 10.1933 73.4315 9.79333 74.1648 9.54C74.9115 9.27333 75.6115 9.14 76.2648 9.14C77.2648 9.14 77.9848 9.36667 78.4248 9.82C78.8782 10.26 79.1048 10.8933 79.1048 11.72C79.1048 11.96 79.0915 12.2067 79.0648 12.46C79.0515 12.7 79.0248 12.9333 78.9848 13.16L77.9048 20H75.4248L76.5048 13.22C76.5182 13.14 76.5248 13.06 76.5248 12.98C76.5382 12.9 76.5448 12.82 76.5448 12.74C76.5448 11.82 76.0315 11.36 75.0048 11.36C74.4715 11.36 73.9715 11.46 73.5048 11.66C73.0515 11.8467 72.5915 12.1 72.1248 12.42C72.1382 12.54 72.1382 12.68 72.1248 12.84C72.1248 12.9867 72.1048 13.1533 72.0648 13.34L71.0048 20H68.5448L69.5848 13.32C69.6115 13.1867 69.6248 13.08 69.6248 13C69.6382 12.92 69.6448 12.8267 69.6448 12.72C69.6448 12.28 69.5248 11.9467 69.2848 11.72C69.0448 11.48 68.6582 11.36 68.1248 11.36C67.5515 11.36 67.0515 11.4533 66.6248 11.64C66.2115 11.8267 65.7848 12.06 65.3448 12.34L64.1248 20H61.6448ZM83.5786 20.12C83.0319 20.12 82.5319 19.9933 82.0786 19.74C81.6253 19.4867 81.2586 19.0933 80.9786 18.56C80.7119 18.0133 80.5786 17.3133 80.5786 16.46C80.5786 16.0867 80.6053 15.7 80.6586 15.3C80.7119 14.9 80.7586 14.56 80.7986 14.28C80.9853 13.12 81.2986 12.1667 81.7386 11.42C82.1786 10.66 82.7786 10.0933 83.5386 9.72C84.3119 9.34667 85.2719 9.16 86.4186 9.16C86.9786 9.16 87.5319 9.21333 88.0786 9.32C88.6386 9.41333 89.1519 9.55333 89.6186 9.74C90.0853 9.92667 90.4786 10.1467 90.7986 10.4L89.2786 20H87.0986L86.9786 18.9C86.7919 19.0467 86.5119 19.22 86.1386 19.42C85.7653 19.6067 85.3519 19.7733 84.8986 19.92C84.4586 20.0533 84.0186 20.12 83.5786 20.12ZM84.7386 18.12C85.2453 18.12 85.6986 18.0333 86.0986 17.86C86.4986 17.6733 86.8719 17.48 87.2186 17.28L88.1186 11.58C87.9719 11.5 87.7386 11.4133 87.4186 11.32C87.0986 11.2133 86.7253 11.16 86.2986 11.16C85.6453 11.16 85.1119 11.2867 84.6986 11.54C84.2986 11.7933 83.9786 12.1667 83.7386 12.66C83.5119 13.14 83.3386 13.7467 83.2186 14.48C83.1653 14.8 83.1253 15.0933 83.0986 15.36C83.0719 15.6267 83.0586 15.8467 83.0586 16.02C83.0586 16.66 83.1986 17.1733 83.4786 17.56C83.7719 17.9333 84.1919 18.12 84.7386 18.12ZM91.6058 20L94.0258 4.74H96.5058L95.5858 10.4C96.0658 10.0667 96.6391 9.77333 97.3058 9.52C97.9724 9.26667 98.7058 9.14 99.5058 9.14C100.372 9.14 101.032 9.35333 101.486 9.78C101.952 10.2067 102.186 10.88 102.186 11.8C102.186 12.1333 102.159 12.52 102.106 12.96L100.966 20H98.5058L99.5458 13.26C99.5724 13.1667 99.5858 13.0733 99.5858 12.98C99.5991 12.8867 99.6058 12.8 99.6058 12.72C99.6058 12.2133 99.4724 11.86 99.2058 11.66C98.9391 11.46 98.5858 11.36 98.1458 11.36C97.5858 11.36 97.0858 11.4467 96.6458 11.62C96.2058 11.7933 95.7591 12.0333 95.3058 12.34L94.0858 20H91.6058ZM107.985 20.12C106.958 20.12 106.132 19.9733 105.505 19.68C104.878 19.3733 104.418 18.9267 104.125 18.34C103.845 17.7533 103.705 17.04 103.705 16.2C103.705 15.8267 103.725 15.4667 103.765 15.12C103.805 14.76 103.852 14.4133 103.905 14.08C104.078 12.9467 104.398 12.02 104.865 11.3C105.332 10.5667 105.945 10.0267 106.705 9.68C107.478 9.32 108.392 9.14 109.445 9.14C109.992 9.14 110.505 9.18667 110.985 9.28C111.465 9.37333 111.885 9.53333 112.245 9.76C112.618 9.98667 112.912 10.3067 113.125 10.72C113.338 11.12 113.445 11.6267 113.445 12.24C113.445 12.9733 113.318 13.58 113.065 14.06C112.812 14.5267 112.458 14.8867 112.005 15.14C111.565 15.3933 111.058 15.5733 110.485 15.68C109.912 15.7733 109.312 15.82 108.685 15.82C108.152 15.82 107.665 15.8 107.225 15.76C106.785 15.7067 106.445 15.6467 106.205 15.58C106.178 15.7267 106.158 15.88 106.145 16.04C106.145 16.1867 106.145 16.3333 106.145 16.48C106.145 17.1067 106.358 17.5667 106.785 17.86C107.225 18.14 107.945 18.28 108.945 18.28H112.305L112.065 19.74C111.585 19.8333 110.985 19.92 110.265 20C109.545 20.08 108.785 20.12 107.985 20.12ZM108.005 14.4C108.698 14.4 109.272 14.34 109.725 14.22C110.192 14.1 110.545 13.9 110.785 13.62C111.025 13.34 111.145 12.9667 111.145 12.5C111.145 11.9933 110.992 11.6267 110.685 11.4C110.378 11.16 109.912 11.04 109.285 11.04C108.672 11.04 108.165 11.1667 107.765 11.42C107.378 11.66 107.072 12.02 106.845 12.5C106.632 12.98 106.472 13.5667 106.365 14.26C106.592 14.3 106.845 14.3333 107.125 14.36C107.418 14.3867 107.712 14.4 108.005 14.4ZM117.602 20.12C117.055 20.12 116.555 19.9933 116.102 19.74C115.649 19.4867 115.282 19.0933 115.002 18.56C114.735 18.0133 114.602 17.3133 114.602 16.46C114.602 16.0867 114.629 15.7 114.682 15.3C114.735 14.9 114.782 14.56 114.822 14.28C115.009 13.12 115.322 12.1667 115.762 11.42C116.202 10.66 116.802 10.0933 117.562 9.72C118.335 9.34667 119.295 9.16 120.442 9.16C121.002 9.16 121.555 9.21333 122.102 9.32C122.662 9.41333 123.175 9.55333 123.642 9.74C124.109 9.92667 124.502 10.1467 124.822 10.4L123.302 20H121.122L121.002 18.9C120.815 19.0467 120.535 19.22 120.162 19.42C119.789 19.6067 119.375 19.7733 118.922 19.92C118.482 20.0533 118.042 20.12 117.602 20.12ZM118.762 18.12C119.269 18.12 119.722 18.0333 120.122 17.86C120.522 17.6733 120.895 17.48 121.242 17.28L122.142 11.58C121.995 11.5 121.762 11.4133 121.442 11.32C121.122 11.2133 120.749 11.16 120.322 11.16C119.669 11.16 119.135 11.2867 118.722 11.54C118.322 11.7933 118.002 12.1667 117.762 12.66C117.535 13.14 117.362 13.7467 117.242 14.48C117.189 14.8 117.149 15.0933 117.122 15.36C117.095 15.6267 117.082 15.8467 117.082 16.02C117.082 16.66 117.222 17.1733 117.502 17.56C117.795 17.9333 118.215 18.12 118.762 18.12ZM129.069 20C128.096 20 127.356 19.7933 126.849 19.38C126.356 18.9533 126.109 18.3933 126.109 17.7C126.109 17.4333 126.116 17.1867 126.129 16.96C126.156 16.72 126.183 16.5 126.209 16.3L128.049 4.74H130.529L128.809 15.5C128.796 15.5933 128.776 15.7333 128.749 15.92C128.723 16.1067 128.696 16.2933 128.669 16.48C128.656 16.6667 128.649 16.8333 128.649 16.98C128.649 17.38 128.743 17.66 128.929 17.82C129.129 17.9667 129.403 18.06 129.749 18.1L130.609 18.22L130.309 20H129.069Z" fill="#8000FF"/>
<path d="M12 18.375C12.6904 18.375 13.25 17.8154 13.25 17.125C13.25 16.4346 12.6904 15.875 12 15.875C11.3096 15.875 10.75 16.4346 10.75 17.125C10.75 17.8154 11.3096 18.375 12 18.375Z" fill="#8000FF"/>
<path d="M12 12.125C12.6904 12.125 13.25 11.5654 13.25 10.875C13.25 10.1846 12.6904 9.625 12 9.625C11.3096 9.625 10.75 10.1846 10.75 10.875C10.75 11.5654 11.3096 12.125 12 12.125Z" fill="#8000FF"/>
<path d="M15.125 15.25C15.8154 15.25 16.375 14.6903 16.375 14C16.375 13.3096 15.8154 12.75 15.125 12.75C14.4346 12.75 13.875 13.3096 13.875 14C13.875 14.6903 14.4346 15.25 15.125 15.25Z" fill="#8000FF"/>
<path d="M8.875 15.25C9.56536 15.25 10.125 14.6903 10.125 14C10.125 13.3096 9.56536 12.75 8.875 12.75C8.18464 12.75 7.625 13.3096 7.625 14C7.625 14.6903 8.18464 15.25 8.875 15.25Z" fill="#8000FF"/>
<path d="M13.9375 6.5C17 6.5 19.5 9 19.5 12.0625C19.5 13.5625 18.9063 14.9375 17.875 16L14 19.875C12.9375 20.9063 11.5625 21.5 10.0625 21.5C7 21.5 4.5 19 4.5 15.9375C4.5 14.4375 5.09375 13.0625 6.125 12L10 8.125C11.0625 7.09375 12.4375 6.5 13.9375 6.5ZM13.9375 4C11.7813 4 9.75 4.84375 8.25 6.375L4.375 10.25C2.84375 11.75 2 13.7813 2 15.9375C2 20.375 5.625 24 10.0625 24C12.2187 24 14.25 23.1563 15.75 21.625L19.625 17.75C21.1563 16.2187 22 14.1875 22 12.0625C22 7.625 18.375 4 13.9375 4Z" fill="#8000FF"/>
</svg>
